General
Format                           : Matroska
File size                        : 7.42 GiB
Duration                         : 2h 5mn
Overall bit rate                 : 8 463 Kbps
Movie name                       : Silent.Hill.2006.720p.BluRay.DTS-ES.x264-ESiR
Encoded date                     : UTC 2008-10-22 11:03:04
Writing application              : mkvmerge v2.2.0 ('Turn It On Again') built on Mar  4 2008 12:58:26
Writing library                  : libebml v0.7.7 + libmatroska v0.8.1
Cover                            : Yes / Yes

Video
ID                               : 1
Format                           : AVC
Format/Info                      : Advanced Video Codec
Format profile                   : High@L5.1
Format settings, CABAC           : Yes
Format settings, ReFrames        : 9 frames
Format settings, GOP             : M=5, N=24
Muxing mode                      : Container profile=Unknown@5.1
Codec ID                         : V_MPEG4/ISO/AVC
Duration                         : 2h 5mn
Bit rate                         : 7 450 Kbps
Width                            : 1 280 pixels
Height                           : 544 pixels
Display aspect ratio             : 2.35:1
Frame rate                       : 23.976 fps
Color space                      : YUV
Chroma subsampling               : 4:2:0
Bit depth                        : 8 bits
Scan type                        : Progressive
Bits/(Pixel*Frame)               : 0.446
Stream size                      : 6.38 GiB (86%)
Title                            : Silent Hill
Writing library                  : x264 core 55
Encoding settings                : cabac=1 / ref=6 / deblock=1:-1:-1 / analyse=0x3:0x133 / me=hex / subme=7 / brdo=1 / mixed_ref=1 / me_range=16 / chroma_me=1 / trellis=1 / 8x8dct=1 / cqm=2 / deadzone=21,11 / chroma_qp_offset=0 / threads=2 / nr=0 / decimate=0 / mbaff=0 / bframes=4 / b_pyramid=1 / b_adapt=1 / b_bias=0 / direct=1 / wpredb=1 / bime=1 / keyint=250 / keyint_min=25 / scenecut=40(pre) / rc=2pass / bitrate=7450 / ratetol=1.0 / rceq='blurCplx^(1-qComp)' / qcomp=0.60 / qpmin=10 / qpmax=51 / qpstep=4 / cplxblur=20.0 / qblur=0.5 / ip_ratio=1.40 / pb_ratio=1.30 / aq=1:0.7:18.0
Language                         : English

Audio #1
ID                               : 2
Format                           : AC-3
Format/Info                      : Audio Coding 3
Mode extension                   : CM (complete main)
Codec ID                         : A_AC3
Duration                         : 2h 5mn
Bit rate mode                    : Constant
Bit rate                         : 384 Kbps
Channel(s)                       : 6 channels
Channel positions                : Front: L C R, Side: L R, LFE
Sampling rate                    : 48.0 KHz
Stream size                      : 345 MiB (5%)
Title                            : Lektor PL
Language                         : Polish

Audio #2
ID                               : 3
Format                           : AC-3
Format/Info                      : Audio Coding 3
Mode extension                   : CM (complete main)
Codec ID                         : A_AC3
Duration                         : 2h 5mn
Bit rate mode                    : Constant
Bit rate                         : 640 Kbps
Channel(s)                       : 6 channels
Channel positions                : Front: L C R, Side: L R, LFE
Sampling rate                    : 48.0 KHz
Stream size                      : 575 MiB (8%)
Title                            : English
Language                         : English